<?xml version="1.0" encoding="UTF-8"?>
<svg version="1.1" xmlns="http://www.w3.org/2000/svg" width="256" height="256">
<path d="M0 0 C84.48 0 168.96 0 256 0 C256 84.48 256 168.96 256 256 C171.52 256 87.04 256 0 256 C0 171.52 0 87.04 0 0 Z " fill="#FDFDFD" transform="translate(0,0)"/>
<path d="M0 0 C0.99 0.495 0.99 0.495 2 1 C0.68 1.66 -0.64 2.32 -2 3 C-2 3.66 -2 4.32 -2 5 C-3.72265625 6.48046875 -3.72265625 6.48046875 -6.0625 8.1875 C-10.43161539 11.48662795 -14.21802166 15.05647987 -18 19 C-18.86625 19.845625 -19.7325 20.69125 -20.625 21.5625 C-22.75140944 23.74486759 -24.71158503 25.99914914 -26.63671875 28.359375 C-28.11158357 30.13428395 -29.64654553 31.84471469 -31.1875 33.5625 C-34.33307768 37.14266407 -37.27934269 40.85195124 -40.1875 44.625 C-40.60346436 45.16326416 -41.01942871 45.70152832 -41.44799805 46.25610352 C-45.25937022 51.24055761 -48.89837373 56.04539223 -51 62 C-51.66 62 -52.32 62 -53 62 C-53.27070312 62.72832031 -53.54140625 63.45664063 -53.8203125 64.20703125 C-54.96444567 66.91582335 -56.295984 69.21261741 -57.875 71.6875 C-60.88281591 76.58994505 -63.04722844 81.60116099 -65 87 C-65.66 87 -66.32 87 -67 87 C-67.0825 88.010625 -67.165 89.02125 -67.25 90.0625 C-67.74330336 93.58609544 -69.0787272 96.03389708 -70.96484375 99.0625 C-72.14566808 101.27264667 -72.77696857 103.3968422 -73.4375 105.8125 C-74.4408661 109.44764603 -75.71459474 112.55467917 -77.5 115.875 C-79.80355808 120.31122906 -81.03654349 124.52745067 -82.12890625 129.390625 C-82.7907821 132.1331061 -83.51847904 134.78971246 -84.33984375 137.484375 C-93.17771716 166.54765726 -95.9032729 195.78650599 -97 226 C-85.36373362 225.49488876 -74.37164857 224.28217226 -63.25 220.6875 C-62.37134277 220.40382568 -61.49268555 220.12015137 -60.58740234 219.82788086 C-48.26991671 215.6400291 -48.26991671 215.6400291 -39 207 C-38.01 207 -37.02 207 -36 207 C-36 206.34 -36 205.68 -36 205 C-34.41796875 203.66015625 -34.41796875 203.66015625 -32.1875 202.0625 C-25.00095858 196.62434307 -18.06438713 190.2684155 -12.9375 182.8125 C-11.9784375 181.4203125 -11.9784375 181.4203125 -11 180 C-10.34 180 -9.68 180 -9 180 C-8.72671875 179.26716797 -8.4534375 178.53433594 -8.171875 177.77929688 C-7.06046345 175.14339914 -5.80552801 172.92517415 -4.25 170.53125 C-3.7240625 169.71269531 -3.198125 168.89414063 -2.65625 168.05078125 C-1.55208333 166.35026042 -0.44791667 164.64973958 0.65625 162.94921875 C1.1821875 162.13066406 1.708125 161.31210938 2.25 160.46875 C2.72953125 159.73076172 3.2090625 158.99277344 3.703125 158.23242188 C5.06454396 155.88889496 6.05411272 153.5364949 7 151 C7.66 151 8.32 151 9 151 C9.33 150.34 9.66 149.68 10 149 C9.46970311 154.01860683 7.75270378 157.84817377 5.3125 162.1875 C4.7712146 163.17206177 4.7712146 163.17206177 4.21899414 164.17651367 C3.48998537 165.50191073 2.75785177 166.82559428 2.02246094 168.14746094 C1.12273812 169.77761775 0.25053416 171.42289892 -0.6171875 173.0703125 C-5.52995154 182.39128644 -11.56004049 190.61572973 -18.203125 198.7734375 C-19.38720751 200.24067018 -20.52497807 201.74669211 -21.609375 203.2890625 C-22.06828125 203.85367188 -22.5271875 204.41828125 -23 205 C-23.66 205 -24.32 205 -25 205 C-25 205.66 -25 206.32 -25 207 C-25.66 207 -26.32 207 -27 207 C-27.061875 207.598125 -27.12375 208.19625 -27.1875 208.8125 C-28.33554682 211.90339529 -30.10547052 212.5880344 -33 214 C-33.66 214 -34.32 214 -35 214 C-35 214.66 -35 215.32 -35 216 C-36.875 218.125 -36.875 218.125 -39 220 C-39.66 220 -40.32 220 -41 220 C-41 220.66 -41 221.32 -41 222 C-49.261959 226.40774487 -49.261959 226.40774487 -54 227 C-54 227.66 -54 228.32 -54 229 C-71.71569613 235.81165824 -87.05599626 237.45527246 -106 237 C-106.40524705 201.96795087 -106.40524705 201.96795087 -104.41992188 188.85302734 C-103.97503717 185.83039787 -103.5691585 182.80409454 -103.16767883 179.77545166 C-102.74867612 176.62458443 -102.31977711 173.47511123 -101.88876343 170.3258667 C-101.67382455 168.75243609 -101.46074506 167.17875019 -101.24966431 165.60479736 C-100.14797719 157.45438008 -98.91982246 149.73670471 -96 142 C-95.61580002 140.00914554 -95.25783678 138.01112687 -95 136 C-94.34 136 -93.68 136 -93 136 C-92.87625 135.030625 -92.7525 134.06125 -92.625 133.0625 C-91.60628336 126.12685382 -90.14697348 119.9671731 -87.1484375 113.609375 C-85.18666463 109.15201351 -83.65218458 104.53738424 -82.05078125 99.94140625 C-81 97 -81 97 -80 95 C-79.34 95 -78.68 95 -78 95 C-77.89042969 94.12859375 -77.78085938 93.2571875 -77.66796875 92.359375 C-75.85112295 83.22202186 -69.8513051 74.84090488 -65 67 C-64.48824219 66.08089844 -63.97648437 65.16179687 -63.44921875 64.21484375 C-62.97097656 63.48394531 -62.49273437 62.75304687 -62 62 C-61.34 62 -60.68 62 -60 62 C-59.773125 61.113125 -59.54625 60.22625 -59.3125 59.3125 C-57.8157585 55.53500954 -55.88073072 53.80871245 -53 51 C-52.71125 50.236875 -52.4225 49.47375 -52.125 48.6875 C-50.62545855 45.10526208 -48.26537048 42.70847548 -45.65625 39.8671875 C-43.83198095 37.89656809 -43.83198095 37.89656809 -42 35 C-41.34 35 -40.68 35 -40 35 C-39.690625 34.20335938 -39.690625 34.20335938 -39.375 33.390625 C-37.42038808 29.99226564 -34.77876283 27.48944072 -32 24.75 C-31.4534375 24.19570313 -30.906875 23.64140625 -30.34375 23.0703125 C-26.2533867 19 -26.2533867 19 -24 19 C-24 18.34 -24 17.68 -24 17 C-23.34 17 -22.68 17 -22 17 C-22 16.34 -22 15.68 -22 15 C-21.34 15 -20.68 15 -20 15 C-20 14.34 -20 13.68 -20 13 C-18.04402816 11.60287726 -16.0340906 10.28072371 -14 9 C-10.98858947 7.03336455 -8.10283851 5.08370576 -5.3125 2.8125 C-3 1 -3 1 0 0 Z " fill="#121212" transform="translate(178,4)"/>
<path d="M0 0 C1.98745878 9.04098897 -2.79602619 18.7612102 -6 27 C-6.66 27 -7.32 27 -8 27 C-8.12117188 27.68707031 -8.24234375 28.37414062 -8.3671875 29.08203125 C-8.53476563 29.98308594 -8.70234375 30.88414062 -8.875 31.8125 C-9.03742188 32.70582031 -9.19984375 33.59914062 -9.3671875 34.51953125 C-10 37 -10 37 -12 40 C-12.309375 40.94875 -12.61875 41.8975 -12.9375 42.875 C-13.9798836 45.94083411 -15.32117786 48.24673169 -17 51 C-18.06363438 53.31098743 -19.0310044 55.64672498 -20 58 C-20.66 58 -21.32 58 -22 58 C-22.27070313 58.73347656 -22.54140625 59.46695313 -22.8203125 60.22265625 C-26.08007764 67.89713642 -31.94774583 74.27148624 -37.3125 80.5625 C-37.84020996 81.1824585 -38.36791992 81.80241699 -38.91162109 82.44116211 C-42.7454091 86.87270455 -42.7454091 86.87270455 -45 88 C-45.495 89.485 -45.495 89.485 -46 91 C-48.475 91.495 -48.475 91.495 -51 92 C-51 92.66 -51 93.32 -51 94 C-52.42578125 95.2890625 -52.42578125 95.2890625 -54.3125 96.625 C-54.92738281 97.07101563 -55.54226562 97.51703125 -56.17578125 97.9765625 C-58 99 -58 99 -61 99 C-61.495 100.485 -61.495 100.485 -62 102 C-64.475 102.495 -64.475 102.495 -67 103 C-67 103.66 -67 104.32 -67 105 C-77.46024801 110.04333386 -89.22305354 115.05151308 -101 114 C-100.67 113.01 -100.34 112.02 -100 111 C-97.36 110.67 -94.72 110.34 -92 110 C-92 109.34 -92 108.68 -92 108 C-90.4221875 107.5978125 -90.4221875 107.5978125 -88.8125 107.1875 C-85.41218959 106.12838692 -82.9823975 104.87464985 -80 103 C-79.34 103 -78.68 103 -78 103 C-78 102.34 -78 101.68 -78 101 C-76.23084525 100.01780373 -74.45961431 99.03934641 -72.6875 98.0625 C-71.70136719 97.51722656 -70.71523437 96.97195312 -69.69921875 96.41015625 C-67 95 -67 95 -64 94 C-64 93.34 -64 92.68 -64 92 C-61.4385343 89.70351351 -60.52032428 89 -57 89 C-56.61521484 88.12214844 -56.61521484 88.12214844 -56.22265625 87.2265625 C-54.89437838 84.80765392 -53.43475199 83.26801128 -51.4375 81.375 C-48.85984611 78.95478041 -48.85984611 78.95478041 -47 76 C-46.34 76 -45.68 76 -45 76 C-44.76796875 75.47664063 -44.5359375 74.95328125 -44.296875 74.4140625 C-42.56590318 71.1919523 -40.40861595 68.31733506 -38.25 65.375 C-31.07270955 55.76169669 -31.07270955 55.76169669 -26 45 C-25.34 45 -24.68 45 -24 45 C-23.773125 43.9275 -23.54625 42.855 -23.3125 41.75 C-21.87502522 35.91616076 -19.39798596 30.4915709 -17 25 C-16.34 25 -15.68 25 -15 25 C-13.93034128 18.67551301 -12.86670454 12.35583327 -12 6 C-15.65079826 4.38935371 -19.0507432 3.55105909 -23 3 C-23 2.34 -23 1.68 -23 1 C-26.83415713 1.08160659 -30.66680759 1.19438419 -34.5 1.3125 C-35.57765625 1.33505859 -36.6553125 1.35761719 -37.765625 1.38085938 C-44.22703462 1.59755299 -49.05607202 2.5032825 -55 5 C-56.32 5 -57.64 5 -59 5 C-59 5.66 -59 6.32 -59 7 C-61.31 7.33 -63.62 7.66 -66 8 C-66 8.66 -66 9.32 -66 10 C-66.66 10 -67.32 10 -68 10 C-68 10.66 -68 11.32 -68 12 C-71.1999003 15.01704885 -73.61537866 16.49890042 -78 17 C-78 17.66 -78 18.32 -78 19 C-78.66 19 -79.32 19 -80 19 C-80 19.66 -80 20.32 -80 21 C-80.66 21 -81.32 21 -82 21 C-82 21.66 -82 22.32 -82 23 C-82.66 23 -83.32 23 -84 23 C-82.51460715 17.71860321 -78.91327696 13.71945899 -75 10 C-74.34 10 -73.68 10 -73 10 C-72.75765625 9.41605469 -72.5153125 8.83210938 -72.265625 8.23046875 C-69.9226617 4.1013575 -65.95132343 1.51508024 -62 -1 C-58.4375 -1.9375 -58.4375 -1.9375 -56 -2 C-56 -2.66 -56 -3.32 -56 -4 C-54.68 -4 -53.36 -4 -52 -4 C-52 -4.66 -52 -5.32 -52 -6 C-32.90997863 -13.80322041 -16.81111556 -11.20741037 0 0 Z " fill="#161616" transform="translate(210,133)"/>
<path d="M0 0 C1 3 1 3 -0.546875 6.58203125 C-1.27119257 7.99737974 -2.00603718 9.40737844 -2.75 10.8125 C-3.1109375 11.51181641 -3.471875 12.21113281 -3.84375 12.93164062 C-4.55892464 14.31664369 -5.27829007 15.69949128 -6.00195312 17.08007812 C-6.86263175 18.73574758 -7.69217228 20.4075359 -8.515625 22.08203125 C-10.21694517 25.42646853 -12.0662186 28.66172413 -14 31.875 C-14.34289062 32.46796875 -14.68578125 33.0609375 -15.0390625 33.671875 C-16.0625 35.3671875 -16.0625 35.3671875 -18 38 C-18.99 38 -19.98 38 -21 38 C-23.3484042 39.76333261 -23.3484042 39.76333261 -25.6875 42 C-26.89986328 43.11375 -26.89986328 43.11375 -28.13671875 44.25 C-28.75160156 44.8275 -29.36648437 45.405 -30 46 C-30.66 45.67 -31.32 45.34 -32 45 C-31.32904297 44.36384766 -31.32904297 44.36384766 -30.64453125 43.71484375 C-27.5014135 40.66555041 -24.65892922 37.68824945 -22.1875 34.0625 C-21.465625 33.051875 -20.74375 32.04125 -20 31 C-19.34 31 -18.68 31 -18 31 C-17.72671875 30.26716797 -17.4534375 29.53433594 -17.171875 28.77929688 C-16.06046345 26.14339914 -14.80552801 23.92517415 -13.25 21.53125 C-12.7240625 20.71269531 -12.198125 19.89414063 -11.65625 19.05078125 C-10.55208333 17.35026042 -9.44791667 15.64973958 -8.34375 13.94921875 C-7.8178125 13.13066406 -7.291875 12.31210938 -6.75 11.46875 C-6.03070313 10.36176758 -6.03070313 10.36176758 -5.296875 9.23242188 C-3.93545604 6.88889496 -2.94588728 4.5364949 -2 2 C-1.34 2 -0.68 2 0 2 C0 1.34 0 0.68 0 0 Z " fill="#2D2D2D" transform="translate(187,153)"/>
<path d="M0 0 C0.33 0 0.66 0 1 0 C1 10.56 1 21.12 1 32 C10.24 31.67 19.48 31.34 29 31 C28.34 31.33 27.68 31.66 27 32 C27 32.66 27 33.32 27 34 C22.70838953 34.05783842 18.41687855 34.0935412 14.125 34.125 C12.90167969 34.14175781 11.67835937 34.15851563 10.41796875 34.17578125 C8.66806641 34.18544922 8.66806641 34.18544922 6.8828125 34.1953125 C5.80402832 34.20578613 4.72524414 34.21625977 3.61376953 34.22705078 C1 34 1 34 -1 32 C-1.10442677 29.5567151 -1.09024118 27.23965842 -0.9765625 24.8046875 C-0.95153656 24.09724396 -0.92651062 23.38980042 -0.90072632 22.66091919 C-0.8184671 20.39846281 -0.7219031 18.13687194 -0.625 15.875 C-0.56676631 14.34248342 -0.5094629 12.80993119 -0.453125 11.27734375 C-0.31288005 7.5177302 -0.15980243 3.758831 0 0 Z " fill="#B6B6B6" transform="translate(71,209)"/>
<path d="M0 0 C0.66 0.33 1.32 0.66 2 1 C0.02 1.99 0.02 1.99 -2 3 C-2 3.66 -2 4.32 -2 5 C-3.72265625 6.48046875 -3.72265625 6.48046875 -6.0625 8.1875 C-10.42521121 11.47333946 -14.25261424 15.03572374 -18 19 C-18.33 18.34 -18.66 17.68 -19 17 C-20.32 17.33 -21.64 17.66 -23 18 C-23 18.66 -23 19.32 -23 20 C-23.99 19.67 -24.98 19.34 -26 19 C-25.34 19 -24.68 19 -24 19 C-24 18.34 -24 17.68 -24 17 C-23.34 17 -22.68 17 -22 17 C-22 16.34 -22 15.68 -22 15 C-21.34 15 -20.68 15 -20 15 C-20 14.34 -20 13.68 -20 13 C-18.04402816 11.60287726 -16.0340906 10.28072371 -14 9 C-10.98858947 7.03336455 -8.10283851 5.08370576 -5.3125 2.8125 C-3 1 -3 1 0 0 Z " fill="#414141" transform="translate(178,4)"/>
<path d="M0 0 C1 3 1 3 -0.546875 6.58203125 C-1.27119257 7.99737974 -2.00603718 9.40737844 -2.75 10.8125 C-3.1109375 11.51181641 -3.471875 12.21113281 -3.84375 12.93164062 C-4.55417818 14.30745172 -5.26828723 15.68136929 -5.98632812 17.05322266 C-7.35711194 19.6858407 -8.68100373 22.34113727 -10 25 C-10.99 25 -11.98 25 -13 25 C-13.66 25.33 -14.32 25.66 -15 26 C-13.66148253 23.25517749 -12.21988618 20.61641162 -10.65234375 17.99609375 C-10.21212891 17.25552734 -9.77191406 16.51496094 -9.31835938 15.75195312 C-8.39504199 14.20438439 -7.47055542 12.65751263 -6.54492188 11.11132812 C-6.10599609 10.37205078 -5.66707031 9.63277344 -5.21484375 8.87109375 C-4.81386475 8.20005615 -4.41288574 7.52901855 -3.99975586 6.83764648 C-2.85838511 4.86780762 -2.85838511 4.86780762 -2 2 C-1.34 2 -0.68 2 0 2 C0 1.34 0 0.68 0 0 Z " fill="#474747" transform="translate(187,153)"/>
<path d="M0 0 C0.66 0.33 1.32 0.66 2 1 C2 1.66 2 2.32 2 3 C2.99 3.33 3.98 3.66 5 4 C4.34 4 3.68 4 3 4 C3 4.66 3 5.32 3 6 C-0.1999003 9.01704885 -2.61537866 10.49890042 -7 11 C-7 11.66 -7 12.32 -7 13 C-7.66 13 -8.32 13 -9 13 C-9 13.66 -9 14.32 -9 15 C-9.66 15 -10.32 15 -11 15 C-11 15.66 -11 16.32 -11 17 C-11.66 17 -12.32 17 -13 17 C-11.51460715 11.71860321 -7.91327696 7.71945899 -4 4 C-3.34 4 -2.68 4 -2 4 C-1.34 2.68 -0.68 1.36 0 0 Z " fill="#585858" transform="translate(139,139)"/>
<path d="M0 0 C1.32 0.33 2.64 0.66 4 1 C3.34 1 2.68 1 2 1 C2 1.66 2 2.32 2 3 C6.455 2.505 6.455 2.505 11 2 C4.80545641 6.12969572 -1.78496357 6.30062652 -9 6 C-8.67 5.01 -8.34 4.02 -8 3 C-5.36 2.67 -2.72 2.34 0 2 C0 1.34 0 0.68 0 0 Z " fill="#616161" transform="translate(118,241)"/>
<path d="M0 0 C0.66 0.33 1.32 0.66 2 1 C-1.56550069 7.15859209 -6.48107887 12.52472101 -12 17 C-13.32 17 -14.64 17 -16 17 C-16 17.66 -16 18.32 -16 19 C-17.32 19.33 -18.64 19.66 -20 20 C-19.67 19.34 -19.34 18.68 -19 18 C-18.34 18 -17.68 18 -17 18 C-17 17.34 -17 16.68 -17 16 C-14.4385343 13.70351351 -13.52032428 13 -10 13 C-9.74347656 12.41476563 -9.48695313 11.82953125 -9.22265625 11.2265625 C-7.89437838 8.80765392 -6.43475199 7.26801128 -4.4375 5.375 C-1.85984611 2.95478041 -1.85984611 2.95478041 0 0 Z " fill="#3E3E3E" transform="translate(163,209)"/>
<path d="M0 0 C0 0.66 0 1.32 0 2 C-0.66008057 1.98428955 -1.32016113 1.9685791 -2.00024414 1.95239258 C-5.02090727 1.88963312 -8.0414327 1.85088017 -11.0625 1.8125 C-12.10083984 1.78736328 -13.13917969 1.76222656 -14.20898438 1.73632812 C-20.35579287 1.67778709 -24.53680532 2.18214169 -30 5 C-31.98821313 5.39764263 -33.98732362 5.75455166 -36 6 C-36 5.34 -36 4.68 -36 4 C-24.60256086 -1.59874204 -12.36227991 -0.38988268 0 0 Z " fill="#BBBBBB" transform="translate(187,134)"/>
<path d="M0 0 C0 5.50418927 -5.30777531 9.23182765 -9 13 C-11.27545978 15.09820476 -13.59143637 17.05265068 -16 19 C-16 16 -16 16 -14.71484375 14.67578125 C-14.12832031 14.22589844 -13.54179687 13.77601562 -12.9375 13.3125 C-9.37092155 10.42009186 -6.44358562 7.2331583 -3.48046875 3.734375 C-2 2 -2 2 0 0 Z " fill="#C8C8C8" transform="translate(167,15)"/>
<path d="M0 0 C-1.51870698 0.485864 -3.04010699 0.96331201 -4.5625 1.4375 C-5.40941406 1.70433594 -6.25632812 1.97117188 -7.12890625 2.24609375 C-13.07837781 3.80833594 -18.80493774 4.11677046 -24.9375 4.0625 C-25.62134766 4.05798828 -26.30519531 4.05347656 -27.00976562 4.04882812 C-28.67321604 4.0371956 -30.3366205 4.01926694 -32 4 C-32 3.67 -32 3.34 -32 3 C-31.42967041 2.94465088 -30.85934082 2.88930176 -30.27172852 2.83227539 C-27.70151247 2.58026257 -25.13202369 2.32147272 -22.5625 2.0625 C-21.21575195 1.93198242 -21.21575195 1.93198242 -19.84179688 1.79882812 C-18.56079102 1.66831055 -18.56079102 1.66831055 -17.25390625 1.53515625 C-16.06776733 1.41732788 -16.06776733 1.41732788 -14.85766602 1.29711914 C-12.98896652 1.18448501 -12.98896652 1.18448501 -12 0 C-4.23003802 -1.27376426 -4.23003802 -1.27376426 0 0 Z " fill="#B3B3B3" transform="translate(113,226)"/>
<path d="M0 0 C0.33 0.66 0.66 1.32 1 2 C0.67 2.99 0.34 3.98 0 5 C-0.66 5 -1.32 5 -2 5 C-2.04125 5.5775 -2.0825 6.155 -2.125 6.75 C-3.44065958 10.13312465 -5.96552364 11.19222685 -9 13 C-7.50923566 9.7173068 -5.61379679 7.06922559 -3.375 4.25 C-2.74335938 3.45078125 -2.11171875 2.6515625 -1.4609375 1.828125 C-0.97882813 1.22484375 -0.49671875 0.6215625 0 0 Z " fill="#B8B8B8" transform="translate(143,41)"/>
<path d="M0 0 C0.33 0.66 0.66 1.32 1 2 C-6.11389522 10.81548975 -6.11389522 10.81548975 -11 12 C-7.49102731 7.81576108 -3.91939465 3.80411834 0 0 Z " fill="#444444" transform="translate(151,24)"/>
<path d="M0 0 C0 0.66 0 1.32 0 2 C-6.3618858 4.76081837 -12.09232563 5.63176001 -19 6 C-15.66135833 3.77423889 -12.79479374 2.95201066 -8.9375 1.875 C-7.68839844 1.52179688 -6.43929687 1.16859375 -5.15234375 0.8046875 C-2 0 -2 0 0 0 Z " fill="#B2B2B2" transform="translate(121,234)"/>
<path d="M0 0 C-0.3125 1.875 -0.3125 1.875 -1 4 C-1.99 4.66 -2.98 5.32 -4 6 C-4 5.34 -4 4.68 -4 4 C-5.32 4.33 -6.64 4.66 -8 5 C-8 5.66 -8 6.32 -8 7 C-8.99 6.67 -9.98 6.34 -11 6 C-10.34 6 -9.68 6 -9 6 C-9 5.34 -9 4.68 -9 4 C-8.34 4 -7.68 4 -7 4 C-7 3.34 -7 2.68 -7 2 C-2.25 0 -2.25 0 0 0 Z " fill="#343434" transform="translate(163,17)"/>
<path d="M0 0 C0.66 0.33 1.32 0.66 2 1 C0.02 1.99 0.02 1.99 -2 3 C-2 3.66 -2 4.32 -2 5 C-4.5 6.625 -4.5 6.625 -7 8 C-7.66 7.34 -8.32 6.68 -9 6 C-3.375 1.125 -3.375 1.125 0 0 Z " fill="#636363" transform="translate(178,4)"/>
<path d="M0 0 C1.21386936 3.64160808 0.6674695 4.33165469 -0.9375 7.6875 C-1.31777344 8.49574219 -1.69804687 9.30398437 -2.08984375 10.13671875 C-2.39019531 10.75160156 -2.69054687 11.36648437 -3 12 C-3.99 12 -4.98 12 -6 12 C-4.66666667 8.66666667 -3.33333333 5.33333333 -2 2 C-1.34 2 -0.68 2 0 2 C0 1.34 0 0.68 0 0 Z " fill="#6D6D6D" transform="translate(187,153)"/>
<path d="M0 0 C0.66 0.33 1.32 0.66 2 1 C0.68 2.65 -0.64 4.3 -2 6 C-0.68 6.33 0.64 6.66 2 7 C1.030625 7.12375 0.06125 7.2475 -0.9375 7.375 C-2.4534375 7.684375 -2.4534375 7.684375 -4 8 C-4.33 8.66 -4.66 9.32 -5 10 C-5.33 9.01 -5.66 8.02 -6 7 C-4.78515625 5.17578125 -4.78515625 5.17578125 -3.0625 3.3125 C-2.49660156 2.68988281 -1.93070313 2.06726563 -1.34765625 1.42578125 C-0.90292969 0.95527344 -0.45820313 0.48476562 0 0 Z " fill="#2F2F2F" transform="translate(145,134)"/>
<path d="M0 0 C0.33 0.99 0.66 1.98 1 3 C-0.9375 5.6875 -0.9375 5.6875 -3 8 C-3.75 6.25 -3.75 6.25 -4 4 C-2.0625 1.75 -2.0625 1.75 0 0 Z " fill="#3C3C3C" transform="translate(182,164)"/>
<path d="M0 0 C0.66 0.33 1.32 0.66 2 1 C1.67 1.33 1.34 1.66 1 2 C2.32 2.66 3.64 3.32 5 4 C2.03 4 -0.94 4 -4 4 C-3.67 3.01 -3.34 2.02 -3 1 C-2.01 0.67 -1.02 0.34 0 0 Z " fill="#9C9C9C" transform="translate(113,243)"/>
<path d="M0 0 C-0.66 1.32 -1.32 2.64 -2 4 C-2.66 4 -3.32 4 -4 4 C-4 4.66 -4 5.32 -4 6 C-6 5 -6 5 -7 3 C-6.34 3 -5.68 3 -5 3 C-5 2.34 -5 1.68 -5 1 C-2 0 -2 0 0 0 Z " fill="#BEBEBE" transform="translate(185,0)"/>
<path d="M0 0 C0.66 0 1.32 0 2 0 C1.45276317 3.37462715 0.9451 5.08235 -1 8 C-1.66 8 -2.32 8 -3 8 C-3 7.01 -3 6.02 -3 5 C-2.34 5 -1.68 5 -1 5 C-0.67 3.35 -0.34 1.7 0 0 Z " fill="#C6C6C6" transform="translate(189,147)"/>
</svg>
